<?xml version="1.0" standalone="no"?>
<!DOCTYPE svg PUBLIC "-//W3C//DTD SVG 20010904//EN"
 "http://www.w3.org/TR/2001/REC-SVG-20010904/DTD/svg10.dtd">
<svg version="1.0" xmlns="http://www.w3.org/2000/svg"
 width="260.000000pt" height="260.000000pt" viewBox="0 0 260.000000 260.000000"
 preserveAspectRatio="xMidYMid meet">
<metadata>
Created by potrace 1.14, written by Peter Selinger 2001-2017
</metadata>
<g transform="translate(0.000000,260.000000) scale(0.100000,-0.100000)"
fill="#000000" stroke="none">
<path d="M230 1610 l0 -710 465 0 c256 0 465 -2 465 -4 0 -2 -84 -149 -186
-327 -103 -178 -189 -329 -191 -336 -4 -11 167 -13 867 -13 694 0 871 3 867
13 -2 6 -199 349 -436 762 l-431 749 0 288 0 288 -710 0 -710 0 0 -710z"/>
</g>
</svg>
